<svg width="14" height="14" viewBox="0 0 14 14" fill="none" xmlns="http://www.w3.org/2000/svg">
<path d="M2.33319 8.16656C2.2228 8.16693 2.11457 8.13598 2.02108 8.0773C1.92758 8.01861 1.85266 7.9346 1.80501 7.83502C1.75736 7.73545 1.73894 7.6244 1.75189 7.51478C1.76485 7.40515 1.80864 7.30145 1.87819 7.21572L7.65319 1.26572C7.69651 1.21572 7.75554 1.18193 7.82059 1.1699C7.88565 1.15787 7.95286 1.16832 8.0112 1.19952C8.06953 1.23072 8.11553 1.28083 8.14163 1.34162C8.16774 1.40241 8.1724 1.47027 8.15485 1.53406L7.03485 5.04572C7.00183 5.13411 6.99074 5.22919 7.00253 5.32281C7.01433 5.41643 7.04865 5.50579 7.10257 5.58322C7.15649 5.66066 7.22839 5.72386 7.3121 5.7674C7.39581 5.81094 7.48883 5.83353 7.58319 5.83322H11.6665C11.7769 5.83285 11.8851 5.8638 11.9786 5.92249C12.0721 5.98117 12.1471 6.06518 12.1947 6.16476C12.2423 6.26433 12.2608 6.37538 12.2478 6.48501C12.2349 6.59463 12.1911 6.69833 12.1215 6.78406L6.34652 12.7341C6.3032 12.7841 6.24417 12.8178 6.17911 12.8299C6.11406 12.8419 6.04685 12.8315 5.98851 12.8003C5.93017 12.7691 5.88418 12.719 5.85807 12.6582C5.83197 12.5974 5.82731 12.5295 5.84485 12.4657L6.96485 8.95406C6.99788 8.86567 7.00897 8.77059 6.99717 8.67697C6.98538 8.58335 6.95105 8.49399 6.89713 8.41656C6.84322 8.33912 6.77132 8.27592 6.68761 8.23238C6.6039 8.18884 6.51088 8.16625 6.41652 8.16656H2.33319Z" stroke="#3D4F63" stroke-width="1.16667" stroke-linecap="round" stroke-linejoin="round"/>
</svg>
